<?xml version="1.0" encoding="utf-8"?>
<!-- Generator: Adobe Illustrator 21.1.0, SVG Export Plug-In . SVG Version: 6.00 Build 0)  -->
<svg version="1.1" id="Capa_1" xmlns="http://www.w3.org/2000/svg" xmlns:xlink="http://www.w3.org/1999/xlink" x="0px" y="0px"
	 viewBox="0 0 137 30" style="enable-background:new 0 0 137 30;" xml:space="preserve">
<style type="text/css">
	.st0{fill:#0025FF;}
	.st1{fill:#1D1F21;}
</style>
<g>
	<g id="XMLID_161_">
		<g id="XMLID_169_">
			<g id="XMLID_170_">
				<polygon class="st0" points="7.6,25.3 10.4,21.7 15.5,21.7 15.5,15 19.1,10.5 19.1,25.3 				"/>
			</g>
		</g>
		<g id="XMLID_162_">
			<g id="XMLID_163_">
				<path class="st0" d="M0,6.2h18.7L0,29.8V6.2z M3.6,19.6l7.7-9.8H3.6V19.6z"/>
			</g>
		</g>
	</g>
	<g id="XMLID_3_">
		<g id="XMLID_155_">
			<path class="st1" d="M27.7,6.6h3.8v1.2c0,0.6-0.1,1.1-0.1,1.1h0.1c0,0,1.4-2.8,5.4-2.8c4.5,0,7.4,3.6,7.4,8.7
				c0,5.3-3.2,8.7-7.6,8.7c-3.3,0-4.8-2.3-4.8-2.3h-0.1c0,0,0.1,0.6,0.1,1.4v7h-4.2V6.6z M35.9,20.2c2.3,0,4.2-1.9,4.2-5.2
				c0-3.2-1.7-5.2-4.2-5.2c-2.2,0-4.2,1.6-4.2,5.3C31.7,17.6,33.1,20.2,35.9,20.2z"/>
		</g>
		<g id="XMLID_149_">
			<path class="st1" d="M55.5,6.2c5.1,0,9.2,3.6,9.2,8.7c0,5.1-4.1,8.7-9.2,8.7c-5.1,0-9.2-3.6-9.2-8.7C46.3,9.8,50.4,6.2,55.5,6.2z
				 M55.5,20.1c2.7,0,4.9-2.1,4.9-5.2c0-3.1-2.3-5.2-4.9-5.2c-2.7,0-5,2.1-5,5.2C50.5,18,52.8,20.1,55.5,20.1z"/>
		</g>
		<g id="XMLID_145_">
			<path class="st1" d="M66.7,6.6h4v2.9c0,0.6-0.1,1.2-0.1,1.2h0.1c0.8-2.4,2.8-4.3,5.3-4.3c0.4,0,0.8,0.1,0.8,0.1v4.1
				c0,0-0.4-0.1-1-0.1c-1.8,0-3.8,1-4.6,3.5c-0.3,0.8-0.4,1.7-0.4,2.7v6.6h-4.2V6.6z"/>
		</g>
		<g id="XMLID_141_">
			<path class="st1" d="M78.9,10.1V2h4.2v4.8h3.8v3.3h-3.8v6.5c0,2.8,2.2,3.1,3.3,3.1c0.5,0,0.8-0.1,0.8-0.1v3.6
				c0,0-0.5,0.1-1.3,0.1c-2.3,0-6.9-0.7-6.9-6.3V10.1z"/>
		</g>
		<g id="XMLID_137_">
			<path class="st1" d="M89.6,0h4.1v17.4c0,1.8,0.6,2.3,1.7,2.3c0.3,0,0.6,0,0.6,0v3.6c0,0-0.6,0.1-1.3,0.1c-2.3,0-5.1-0.6-5.1-5.4
				V0z"/>
		</g>
		<g id="XMLID_131_">
			<path class="st1" d="M98.7,0h4.1v3.7h-4.1V0z M98.7,6.6h4.2v16.7h-4.2V6.6z"/>
		</g>
		<g id="XMLID_97_">
			<path class="st1" d="M106.1,0h4.2v12.5h2.1l4-5.9h4.6l-5.3,7.5v0.1l5.9,9.2h-4.8l-4.4-7.3h-2.2v7.3h-4.2V0z"/>
		</g>
		<g id="XMLID_54_">
			<path class="st1" d="M129.6,6.2c4.8,0,7.4,3.5,7.4,7.9c0,0.5-0.1,1.6-0.1,1.6h-11.5c0.3,2.9,2.5,4.4,5,4.4c2.7,0,4.8-1.8,4.8-1.8
				l1.6,3c0,0-2.6,2.4-6.7,2.4c-5.5,0-9-4-9-8.7C121.1,9.8,124.6,6.2,129.6,6.2z M132.8,12.8c-0.1-2.3-1.5-3.5-3.3-3.5
				c-2.1,0-3.6,1.3-4,3.5H132.8z"/>
		</g>
	</g>
</g>
</svg>
